<svg xmlns="http://www.w3.org/2000/svg" fill="none" viewBox="0 0 167 33"><path fill="#2B293F" d="M3.767 13.748h4.797c.168-.938.613-1.624 1.334-2.057.722-.457 1.54-.685 2.453-.685.336 0 .685.036 1.046.108.384.048.733.156 1.046.325.336.168.613.397.829.685.216.29.325.674.325 1.155 0 .602-.145 1.059-.433 1.372-.289.288-.733.517-1.335.685-.577.145-1.31.253-2.2.325-.89.072-1.935.18-3.137.325-2.26.265-4.016.938-5.266 2.021-1.226 1.083-1.84 2.526-1.84 4.33 0 .65.12 1.276.361 1.877a4.32 4.32 0 0 0 1.118 1.552c.505.433 1.13.782 1.876 1.047.77.264 1.659.397 2.669.397a9.22 9.22 0 0 0 3.137-.542 6.374 6.374 0 0 0 2.561-1.768v1.84h5.121c-.12-.408-.18-.77-.18-1.082 0-.361.012-.782.036-1.263.048-.505.12-.927.217-1.263l1.659-7.507c.264-1.203.396-2.25.396-3.14.024-1.058-.216-1.9-.721-2.526a4.562 4.562 0 0 0-1.875-1.48 8.528 8.528 0 0 0-2.525-.721c-.914-.12-1.791-.18-2.633-.18-1.058 0-2.08.107-3.065.324a8.091 8.091 0 0 0-2.67 1.01 6.645 6.645 0 0 0-2.019 1.913c-.553.77-.914 1.745-1.082 2.923Zm10.82 4.042-.505 1.805a12.81 12.81 0 0 1-.541 1.516 4.676 4.676 0 0 1-.902 1.371c-.36.385-.817.71-1.37.974-.53.241-1.19.361-1.984.361-.745 0-1.406-.168-1.983-.505-.553-.36-.83-.89-.83-1.588 0-.577.108-1.046.325-1.407a2.51 2.51 0 0 1 .83-.903 3.94 3.94 0 0 1 1.225-.469c.457-.12.926-.204 1.407-.252a70.13 70.13 0 0 0 2.236-.18 5.42 5.42 0 0 0 2.092-.723Zm18.798-6.351c1.25 0 2.176.373 2.777 1.119.602.721.902 1.696.902 2.923 0 .794-.12 1.66-.36 2.598a8.848 8.848 0 0 1-1.047 2.563 6.577 6.577 0 0 1-1.73 1.985c-.698.505-1.527.757-2.49.757-.6 0-1.13-.108-1.586-.324a3.93 3.93 0 0 1-1.154-.903 4.665 4.665 0 0 1-.685-1.335 5.754 5.754 0 0 1-.217-1.588c0-.818.108-1.684.325-2.598a8.963 8.963 0 0 1 1.01-2.527 6.299 6.299 0 0 1 1.73-1.912c.722-.506 1.564-.758 2.525-.758Zm2.056 12.992-.505 2.31h4.941L45.323.973h-5.121l-2.056 9.6h-.072a4.109 4.109 0 0 0-2.128-2.274 6.984 6.984 0 0 0-3.102-.722c-1.73 0-3.234.361-4.508 1.083a9.546 9.546 0 0 0-3.174 2.779c-.841 1.155-1.466 2.466-1.875 3.934a16.738 16.738 0 0 0-.613 4.51c0 2.262.613 4.055 1.84 5.378 1.25 1.3 3.005 1.949 5.265 1.949 1.154 0 2.224-.217 3.21-.65 1.01-.457 1.803-1.19 2.38-2.201l.072.072Zm21.615-10.899h4.76c.025-1.203-.168-2.19-.576-2.96a4.543 4.543 0 0 0-1.696-1.804c-.697-.457-1.514-.77-2.452-.938a16.501 16.501 0 0 0-2.921-.253c-.89 0-1.828.108-2.813.325a8.517 8.517 0 0 0-2.67 1.01 6.078 6.078 0 0 0-2.019 1.805c-.505.746-.757 1.672-.757 2.779 0 .746.084 1.371.252 1.876.192.506.457.939.794 1.3.36.36.781.661 1.262.902a15.3 15.3 0 0 0 1.731.686l3.931 1.263c.553.192.998.42 1.335.685.336.265.505.722.505 1.372 0 .433-.097.794-.289 1.083a2.616 2.616 0 0 1-.757.685 3.585 3.585 0 0 1-1.046.361 6.253 6.253 0 0 1-2.489-.036 5.842 5.842 0 0 1-1.19-.47 2.907 2.907 0 0 1-.83-.793c-.216-.313-.324-.686-.324-1.119v-.613h-4.725v.757c0 1.107.24 2.034.722 2.78a5.872 5.872 0 0 0 1.839 1.768c.77.433 1.623.745 2.56.938.938.192 1.864.289 2.778.289 1.082 0 2.152-.108 3.21-.325 1.058-.217 2.007-.578 2.849-1.083a6.028 6.028 0 0 0 2.02-1.949c.528-.818.793-1.804.793-2.959 0-.77-.132-1.443-.397-2.02a4.046 4.046 0 0 0-1.046-1.48 5.592 5.592 0 0 0-1.55-1.083 12.644 12.644 0 0 0-1.912-.758l-2.56-.83c-.866-.265-1.48-.542-1.84-.83-.337-.289-.505-.638-.505-1.047 0-.674.288-1.143.866-1.407.6-.289 1.358-.433 2.272-.433 1.01 0 1.73.228 2.164.685.456.433.697 1.047.721 1.84Zm16.034-5.45 1.153-5.666h-5.12l-1.155 5.666h-3.282l-.793 3.429h3.354l-2.092 9.997c-.072.337-.132.661-.18.974a4.862 4.862 0 0 0-.073.794c-.024.77.097 1.396.361 1.877.289.48.661.866 1.118 1.155.481.264 1.01.445 1.587.54a9.113 9.113 0 0 0 1.803.181c.553 0 1.094-.024 1.623-.072.53-.024 1.058-.06 1.587-.108l.866-3.934c-.601.072-1.215.108-1.84.108h-.613a1.439 1.439 0 0 1-.54-.18 1.356 1.356 0 0 1-.433-.397c-.097-.192-.145-.457-.145-.794a5.397 5.397 0 0 1 .144-.866l1.912-9.275h3.643l.793-3.428H73.09Zm5.486 5.666h4.796c.169-.938.614-1.624 1.335-2.057.721-.457 1.539-.685 2.452-.685.337 0 .685.036 1.046.108.385.048.734.156 1.046.325.337.168.613.397.83.685.216.29.324.674.324 1.155 0 .602-.144 1.059-.433 1.372-.288.288-.733.517-1.334.685-.577.145-1.31.253-2.2.325-.89.072-1.936.18-3.138.325-2.26.265-4.015.938-5.265 2.021-1.227 1.083-1.84 2.526-1.84 4.33 0 .65.12 1.276.36 1.877a4.334 4.334 0 0 0 1.119 1.552c.505.433 1.13.782 1.875 1.047.77.264 1.66.397 2.67.397 1.081 0 2.127-.18 3.137-.542a6.374 6.374 0 0 0 2.56-1.768v1.84h5.122c-.12-.408-.18-.77-.18-1.082 0-.361.012-.782.036-1.263.048-.505.12-.927.216-1.263l1.66-7.507c.264-1.203.396-2.25.396-3.14.024-1.058-.216-1.9-.721-2.526a4.563 4.563 0 0 0-1.876-1.48 8.528 8.528 0 0 0-2.525-.721 20.18 20.18 0 0 0-2.632-.18c-1.058 0-2.08.107-3.066.324a8.09 8.09 0 0 0-2.669 1.01 6.644 6.644 0 0 0-2.02 1.913c-.552.77-.913 1.745-1.081 2.923Zm10.82 4.042-.506 1.805c-.144.505-.324 1.01-.54 1.516a4.676 4.676 0 0 1-.902 1.371 4.53 4.53 0 0 1-1.37.974c-.53.241-1.19.361-1.984.361-.746 0-1.407-.168-1.984-.505-.553-.36-.83-.89-.83-1.588 0-.577.109-1.046.325-1.407a2.51 2.51 0 0 1 .83-.903 3.94 3.94 0 0 1 1.226-.469 9.09 9.09 0 0 1 1.406-.252 76.562 76.562 0 0 0 2.237-.18 5.419 5.419 0 0 0 2.091-.723Zm17.752-9.708 1.155-5.666h-5.122l-1.154 5.666h-3.282l-.794 3.429h3.355l-2.093 9.997c-.072.337-.132.661-.18.974a4.861 4.861 0 0 0-.072.794c-.024.77.096 1.396.36 1.877.29.48.662.866 1.119 1.155.481.264 1.01.445 1.587.54a9.113 9.113 0 0 0 1.803.181c.553 0 1.094-.024 1.623-.072.529-.024 1.058-.06 1.587-.108l.866-3.934a15.41 15.41 0 0 1-1.84.108h-.613a1.445 1.445 0 0 1-.541-.18 1.354 1.354 0 0 1-.432-.397c-.097-.192-.145-.457-.145-.794 0-.072.012-.18.036-.325.024-.168.06-.349.109-.541l1.911-9.275h3.643l.793-3.428h-3.679Z"/><path fill="#2B293F" fill-rule="evenodd" d="m3.118 14.313.092-.644c.178-1.244.564-2.31 1.18-3.169a7.207 7.207 0 0 1 2.188-2.069 8.65 8.65 0 0 1 2.846-1.08 14.816 14.816 0 0 1 3.18-.337c.869 0 1.77.062 2.707.185a9.118 9.118 0 0 1 2.683.767c.85.373 1.55.923 2.089 1.649.606.755.864 1.736.839 2.877 0 .942-.14 2.029-.41 3.255l-1.663 7.524-.005.016c-.082.29-.15.67-.196 1.15-.023.469-.034.876-.034 1.222 0 .243.047.549.157.923l.213.723h-6.438V26.2a7.056 7.056 0 0 1-1.797.997l-.011.004a9.816 9.816 0 0 1-3.327.574c-1.058 0-2.012-.138-2.852-.427l-.006-.002c-.798-.284-1.487-.664-2.053-1.15l-.012-.01a4.894 4.894 0 0 1-1.26-1.753l-.003-.008a5.574 5.574 0 0 1-.4-2.085c0-1.948.669-3.553 2.03-4.754l.003-.004c1.363-1.18 3.238-1.881 5.569-2.154a83.939 83.939 0 0 1 3.158-.327c.868-.07 1.566-.175 2.101-.308.541-.152.878-.341 1.072-.531.156-.174.276-.47.276-.981 0-.4-.09-.653-.212-.816a1.75 1.75 0 0 0-.63-.52l-.008-.004-.008-.004a2.396 2.396 0 0 0-.848-.262l-.02-.002-.02-.004a4.768 4.768 0 0 0-.936-.098c-.815 0-1.527.203-2.151.598l-.012.008c-.562.338-.926.871-1.07 1.673l-.083.464H3.118Zm12.047.338c-.289.29-.733.518-1.335.686-.577.145-1.31.253-2.2.325-.89.072-1.935.18-3.137.325-2.26.264-4.016.938-5.266 2.02-1.226 1.083-1.84 2.527-1.84 4.331 0 .65.121 1.276.361 1.877.24.578.614 1.095 1.118 1.552.505.433 1.13.782 1.876 1.047.77.264 1.659.396 2.669.396 1.082 0 2.128-.18 3.138-.54a6.427 6.427 0 0 0 2.56-1.77v1.841h5.121a4.958 4.958 0 0 1-.133-.564 3.102 3.102 0 0 1-.047-.518c0-.361.012-.782.036-1.264.048-.505.12-.926.217-1.263l1.659-7.506c.264-1.203.396-2.25.396-3.14.024-1.059-.216-1.9-.721-2.526a4.562 4.562 0 0 0-1.875-1.48 8.528 8.528 0 0 0-2.525-.722c-.914-.12-1.791-.18-2.633-.18-1.058 0-2.08.108-3.065.325a8.09 8.09 0 0 0-2.67 1.01 6.645 6.645 0 0 0-2.019 1.913c-.462.643-.79 1.43-.984 2.36a9.03 9.03 0 0 0-.098.563h4.797c.168-.938.613-1.624 1.334-2.057.722-.457 1.54-.686 2.453-.686.336 0 .685.037 1.046.109.384.048.733.156 1.046.325.336.168.613.396.83.685.216.289.324.674.324 1.155 0 .602-.145 1.059-.433 1.371Zm-2.525 7.832a4.69 4.69 0 0 0 .902-1.372c.216-.505.397-1.01.54-1.515l.506-1.805a5.417 5.417 0 0 1-2.092.722c-.745.072-1.49.132-2.236.18-.481.049-.95.133-1.407.253a3.94 3.94 0 0 0-1.226.47 2.51 2.51 0 0 0-.83.901c-.216.361-.324.83-.324 1.408 0 .698.277 1.227.83 1.588.577.337 1.238.505 1.983.505.794 0 1.455-.12 1.984-.36a4.53 4.53 0 0 0 1.37-.975Zm-1.608.463a3.968 3.968 0 0 0 1.197-.849 4.12 4.12 0 0 0 .795-1.208c.207-.484.38-.966.517-1.447v-.001l.177-.633a6.006 6.006 0 0 1-1.15.264l-.009.001-.009.001c-.748.073-1.496.133-2.244.181a8.488 8.488 0 0 0-1.31.236l-.013.004-.014.003a3.384 3.384 0 0 0-1.044.396 1.95 1.95 0 0 0-.636.7l-.008.014c-.148.246-.244.605-.244 1.117 0 .515.187.859.562 1.108.478.276 1.035.421 1.687.421.738 0 1.312-.112 1.746-.308Zm24.692-10.034c-.463-.575-1.202-.909-2.338-.909-.856 0-1.58.223-2.198.654a5.736 5.736 0 0 0-1.573 1.741 8.399 8.399 0 0 0-.946 2.368c-.208.878-.31 1.7-.31 2.469 0 .5.065.972.192 1.421.148.442.344.822.585 1.148.259.294.579.546.967.752.367.171.807.265 1.335.265.856 0 1.564-.222 2.153-.647a6.014 6.014 0 0 0 1.579-1.813l.006-.011c.45-.743.777-1.542.98-2.4l.002-.01c.231-.902.343-1.72.343-2.459 0-1.136-.277-1.969-.77-2.562l-.007-.007Zm-1.797 9.715c-.697.505-1.527.758-2.489.758-.6 0-1.13-.108-1.586-.325a3.93 3.93 0 0 1-1.155-.902 4.665 4.665 0 0 1-.685-1.335 5.754 5.754 0 0 1-.216-1.588c0-.818.108-1.684.324-2.599a8.964 8.964 0 0 1 1.01-2.526 6.3 6.3 0 0 1 1.731-1.913c.722-.505 1.563-.757 2.525-.757 1.25 0 2.176.372 2.777 1.118.601.722.902 1.697.902 2.924 0 .794-.12 1.66-.36 2.598a8.848 8.848 0 0 1-1.047 2.562 6.576 6.576 0 0 1-1.731 1.985Zm1.515 1.805-.072-.072-.03.05a5.432 5.432 0 0 1-.674.929c-.47.52-1.028.928-1.677 1.222-.985.433-2.055.65-3.21.65-2.26 0-4.015-.65-5.265-1.95-1.226-1.323-1.84-3.115-1.84-5.377 0-1.54.205-3.043.614-4.51.408-1.468 1.034-2.78 1.875-3.934a9.547 9.547 0 0 1 3.174-2.78c1.274-.721 2.777-1.082 4.508-1.082 1.082 0 2.116.24 3.102.722.763.364 1.355.886 1.775 1.566.132.214.248.444.346.69l.007.017h.072l2.055-9.6h5.122l-5.446 25.768h-4.941l.505-2.31Zm2.44-15.316L39.748.41h6.272l-5.684 26.895h-6.098l.216-.988a5.633 5.633 0 0 1-1.232.758l-.005.002c-1.062.467-2.21.697-3.437.697-2.372 0-4.289-.685-5.671-2.121l-.008-.008c-1.345-1.452-1.99-3.394-1.99-5.76 0-1.591.212-3.146.635-4.663.425-1.528 1.079-2.902 1.963-4.115a10.11 10.11 0 0 1 3.355-2.94c1.372-.776 2.973-1.153 4.782-1.153 1.168 0 2.285.26 3.346.778a4.734 4.734 0 0 1 1.691 1.324Zm18.628 4.98-.016-.546c-.021-.686-.224-1.143-.546-1.449l-.01-.01-.011-.011c-.277-.293-.81-.51-1.755-.51-.859 0-1.526.137-2.029.378l-.009.004a.88.88 0 0 0-.404.333c-.078.128-.133.306-.133.562 0 .227.083.422.301.612.277.218.803.468 1.645.725l.009.003 2.554.828.003.001c.72.224 1.384.486 1.99.79a6.158 6.158 0 0 1 1.69 1.179 4.61 4.61 0 0 1 1.175 1.663c.301.663.443 1.416.443 2.247 0 1.242-.285 2.34-.882 3.264a6.593 6.593 0 0 1-2.204 2.128 9.585 9.585 0 0 1-3.026 1.151 16.535 16.535 0 0 1-3.323.336c-.954 0-1.917-.1-2.89-.3a9.347 9.347 0 0 1-2.724-.999l-.01-.005-.008-.006a6.436 6.436 0 0 1-2.014-1.936l-.005-.007c-.553-.857-.811-1.896-.811-3.085v-1.322h5.852v1.178c0 .335.081.592.224.798.168.242.383.452.652.628.31.164.656.3 1.038.408a5.68 5.68 0 0 0 2.251.03 3.06 3.06 0 0 0 .868-.296c.247-.154.435-.328.576-.519.114-.175.188-.417.188-.76 0-.569-.147-.817-.29-.928-.272-.214-.654-.416-1.165-.595l-3.93-1.263a15.847 15.847 0 0 1-1.795-.711l-.01-.005a5.377 5.377 0 0 1-1.409-1.008l-.007-.007-.006-.007a4.492 4.492 0 0 1-.908-1.483l-.005-.011-.004-.011c-.193-.581-.28-1.271-.28-2.055 0-1.194.272-2.237.853-3.096l.007-.01a6.637 6.637 0 0 1 2.2-1.967 9.08 9.08 0 0 1 2.833-1.073 13.686 13.686 0 0 1 2.929-.337c1.041 0 2.048.087 3.02.261.998.18 1.886.515 2.653 1.016a5.106 5.106 0 0 1 1.893 2.018c.468.88.668 1.97.643 3.235l-.011.553h-5.86Zm3.035-5.327c-.697-.457-1.514-.77-2.452-.938a16.492 16.492 0 0 0-2.921-.253c-.89 0-1.828.108-2.813.325a8.514 8.514 0 0 0-2.67 1.01 6.077 6.077 0 0 0-2.019 1.805c-.505.745-.757 1.672-.757 2.779 0 .745.084 1.371.252 1.876.193.506.457.938.794 1.3.36.36.781.661 1.262.902.505.24 1.082.469 1.731.685l3.931 1.263c.553.193.998.422 1.335.686.336.265.505.722.505 1.372 0 .433-.097.794-.289 1.082a2.616 2.616 0 0 1-.757.686 3.58 3.58 0 0 1-1.046.36 6.244 6.244 0 0 1-2.489-.035 5.842 5.842 0 0 1-1.19-.47 2.907 2.907 0 0 1-.83-.793c-.216-.313-.324-.686-.324-1.12v-.613h-4.725v.758c0 1.107.24 2.033.722 2.78a5.872 5.872 0 0 0 1.839 1.767c.77.433 1.623.746 2.56.939.938.192 1.864.288 2.778.288a15.97 15.97 0 0 0 3.21-.324c1.057-.217 2.007-.578 2.849-1.083a6.03 6.03 0 0 0 2.02-1.949c.528-.818.793-1.804.793-2.96 0-.769-.132-1.443-.397-2.02a4.048 4.048 0 0 0-1.046-1.48 5.593 5.593 0 0 0-1.55-1.082 12.657 12.657 0 0 0-1.912-.758l-2.56-.83c-.866-.265-1.48-.542-1.84-.83-.337-.29-.505-.638-.505-1.047 0-.674.288-1.143.866-1.407.6-.29 1.358-.434 2.272-.434 1.01 0 1.73.229 2.164.686.456.433.697 1.047.721 1.84h4.76a9.9 9.9 0 0 0-.005-.563c-.038-.951-.228-1.75-.571-2.396a4.54 4.54 0 0 0-1.696-1.804Zm13.545-.686h3.679l-.794 3.429h-3.642l-1.912 9.275a5.42 5.42 0 0 0-.144.866c0 .337.048.601.144.794a1.373 1.373 0 0 0 .974.577h.613a15.652 15.652 0 0 0 1.84-.108l-.866 3.934c-.529.048-1.058.084-1.587.108-.529.048-1.07.072-1.623.072-.6 0-1.202-.06-1.803-.18a4.955 4.955 0 0 1-1.587-.542 3.428 3.428 0 0 1-1.118-1.155c-.264-.48-.385-1.106-.36-1.876 0-.24.023-.506.071-.794.049-.313.109-.638.18-.975l2.093-9.996h-3.355l.794-3.429h3.282l1.154-5.666h5.121L73.09 8.083Zm-5.58-.563h-3.27l-1.055 4.557h3.37l-1.95 9.314c-.073.345-.135.68-.185 1.004-.051.308-.079.6-.08.874-.024.828.103 1.56.431 2.157l.005.01.006.009a3.99 3.99 0 0 0 1.3 1.341l.014.01.015.007a5.514 5.514 0 0 0 1.757.602c.634.127 1.27.19 1.905.19.565 0 1.119-.024 1.661-.073a35.71 35.71 0 0 0 1.6-.11l.41-.037 1.126-5.113-.788.095c-.579.07-1.17.104-1.773.104h-.574a.874.874 0 0 1-.3-.106.775.775 0 0 1-.225-.196c-.035-.091-.068-.25-.068-.505 0-.024.005-.094.028-.232l.002-.013a4.61 4.61 0 0 1 .097-.485l.003-.011 1.821-8.836h3.631l1.055-4.557H73.78l1.154-5.666h-6.271L67.509 7.52Zm10.418 6.794.092-.644c.177-1.244.563-2.309 1.18-3.168a7.21 7.21 0 0 1 2.187-2.07 8.65 8.65 0 0 1 2.847-1.08 14.815 14.815 0 0 1 3.18-.337c.868 0 1.77.062 2.706.185.964.127 1.86.382 2.684.767a5.126 5.126 0 0 1 2.088 1.649c.606.755.864 1.736.84 2.877-.001.942-.141 2.029-.41 3.255l-1.663 7.524-.005.016c-.083.29-.15.67-.196 1.15-.024.469-.035.876-.035 1.222 0 .243.047.549.157.923l.213.723h-6.438V26.2a7.059 7.059 0 0 1-1.797.997l-.01.004a9.816 9.816 0 0 1-3.328.574c-1.058 0-2.011-.138-2.852-.427l-.005-.002c-.799-.284-1.487-.664-2.054-1.15l-.011-.01a4.893 4.893 0 0 1-1.26-1.753l-.004-.008a5.575 5.575 0 0 1-.4-2.085c0-1.948.669-3.553 2.03-4.754l.004-.004c1.362-1.18 3.237-1.881 5.568-2.154a83.936 83.936 0 0 1 3.158-.327c.869-.07 1.566-.175 2.102-.308.54-.152.878-.341 1.072-.531.155-.174.276-.47.276-.981 0-.4-.09-.653-.212-.816a1.75 1.75 0 0 0-.631-.52l-.008-.004-.007-.004a2.395 2.395 0 0 0-.849-.262l-.02-.002-.02-.004a4.77 4.77 0 0 0-.936-.098c-.815 0-1.526.203-2.15.598l-.012.008c-.563.338-.926.871-1.07 1.673l-.083.464h-5.918Zm12.046.338c-.288.29-.733.518-1.334.686-.577.145-1.31.253-2.2.325-.89.072-1.936.18-3.138.325-2.26.264-4.015.938-5.266 2.02-1.226 1.083-1.839 2.527-1.839 4.331 0 .65.12 1.276.36 1.877a4.33 4.33 0 0 0 1.119 1.552c.505.433 1.13.782 1.875 1.047.77.264 1.66.396 2.67.396 1.081 0 2.127-.18 3.137-.54a6.429 6.429 0 0 0 2.56-1.77v1.841h5.122a4.956 4.956 0 0 1-.133-.564 3.102 3.102 0 0 1-.047-.518c0-.361.012-.782.036-1.264.048-.505.12-.926.216-1.263l1.659-7.506c.264-1.203.397-2.25.397-3.14.024-1.059-.217-1.9-.722-2.526a4.562 4.562 0 0 0-1.875-1.48 8.529 8.529 0 0 0-2.525-.722c-.913-.12-1.79-.18-2.632-.18-1.058 0-2.08.108-3.066.325a8.089 8.089 0 0 0-2.669 1.01 6.645 6.645 0 0 0-2.02 1.913c-.462.643-.79 1.43-.983 2.36a9.15 9.15 0 0 0-.099.563h4.797c.168-.938.613-1.624 1.335-2.057.72-.457 1.538-.686 2.452-.686.337 0 .685.037 1.046.109.385.048.733.156 1.046.325.337.168.613.396.83.685.216.289.324.674.324 1.155 0 .602-.144 1.059-.433 1.371Zm-2.524 7.832c.384-.41.685-.866.901-1.372.217-.505.397-1.01.541-1.515l.505-1.805a5.416 5.416 0 0 1-2.092.722c-.745.072-1.49.132-2.236.18a9.19 9.19 0 0 0-1.406.253 3.94 3.94 0 0 0-1.227.47 2.51 2.51 0 0 0-.829.901c-.216.361-.325.83-.325 1.408 0 .698.277 1.227.83 1.588.577.337 1.238.505 1.983.505.794 0 1.455-.12 1.984-.36a4.53 4.53 0 0 0 1.37-.975Zm-1.609.463a3.967 3.967 0 0 0 1.197-.849c.341-.362.605-.765.795-1.208.207-.483.38-.965.517-1.446v-.002l.177-.633a6.007 6.007 0 0 1-1.15.264l-.008.001-.01.001c-.747.073-1.495.133-2.243.181a8.488 8.488 0 0 0-1.31.236l-.014.004-.013.003a3.383 3.383 0 0 0-1.045.396 1.95 1.95 0 0 0-.636.7l-.008.014c-.147.246-.244.605-.244 1.117 0 .515.187.859.562 1.108.479.276 1.036.421 1.688.421.737 0 1.311-.112 1.745-.308Zm21.308-14.863h3.679l-.793 3.429h-3.643l-1.911 9.275a5.138 5.138 0 0 0-.109.541 2.175 2.175 0 0 0-.036.325c0 .337.048.601.145.794a1.37 1.37 0 0 0 .973.577h.613a15.667 15.667 0 0 0 1.84-.108l-.866 3.934a35.23 35.23 0 0 1-1.587.108c-.529.048-1.07.072-1.623.072-.601 0-1.202-.06-1.803-.18a4.957 4.957 0 0 1-1.587-.542 3.429 3.429 0 0 1-1.118-1.155c-.264-.48-.385-1.106-.36-1.876 0-.24.023-.506.072-.794.048-.313.108-.638.18-.975l2.092-9.996h-3.354l.793-3.429h3.282l1.154-5.666h5.122l-1.155 5.666Zm-5.581-.564h-3.27l-1.054 4.557h3.369l-1.95 9.314v.002a18.58 18.58 0 0 0-.185 1.002c-.051.308-.078.6-.079.874-.025.828.103 1.56.43 2.157l.005.01.006.009a3.993 3.993 0 0 0 1.3 1.341l.015.01.015.007a5.509 5.509 0 0 0 1.756.602c.634.127 1.269.19 1.905.19.565 0 1.119-.024 1.662-.073a35.768 35.768 0 0 0 1.599-.11l.411-.037 1.125-5.113-.788.095c-.578.07-1.169.104-1.773.104h-.573a.876.876 0 0 1-.301-.106.771.771 0 0 1-.224-.196c-.036-.091-.069-.25-.069-.505 0-.024.005-.094.028-.232l.002-.013c.021-.147.053-.308.097-.485l.003-.011 1.821-8.836h3.632l1.054-4.557h-3.698l1.155-5.666h-6.272l-1.154 5.666Z" clip-rule="evenodd"/><path fill="#29C630" d="m121.663 21.816-1.04 5.051h-5.225l1.066-5.05h5.199Zm9.562-8.112-.279 1.377c1.015-1.139 2.266-1.709 3.754-1.709 1.403 0 2.527.502 3.373 1.505.862.987 1.293 2.305 1.293 3.954 0 1.004-.135 1.99-.405 2.96a10.303 10.303 0 0 1-1.192 2.678 5.93 5.93 0 0 1-2.055 1.99c-.862.51-1.834.765-2.916.765-1.81 0-3.086-.629-3.83-1.887l-1.218 5.79h-5.021l3.652-17.423h4.844Zm1.395 3.597c-.981 0-1.699.4-2.156 1.199-.439.782-.659 1.718-.659 2.806 0 .697.16 1.241.482 1.633.338.374.811.56 1.42.56.862 0 1.505-.441 1.927-1.326.44-.884.66-1.81.66-2.78 0-.646-.152-1.157-.457-1.53-.287-.375-.693-.562-1.217-.562Zm20.197-3.776-.938 4.44c-.676-.222-1.302-.333-1.877-.333-1.133 0-1.986.29-2.561.868-.558.578-.956 1.42-1.192 2.525l-1.243 5.842h-4.971l2.764-13.163h4.794l-.457 2.04c.592-.816 1.192-1.42 1.801-1.81.626-.392 1.403-.587 2.333-.587.474 0 .989.06 1.547.178Zm13.756 5.715c0 2.38-.718 4.32-2.156 5.816-1.42 1.48-3.322 2.22-5.706 2.22-1.978 0-3.568-.485-4.768-1.455-1.184-.986-1.775-2.474-1.775-4.464 0-2.364.71-4.286 2.13-5.765 1.437-1.48 3.348-2.22 5.732-2.22 1.944 0 3.517.494 4.717 1.48 1.218.986 1.826 2.449 1.826 4.388Zm-6.746-2.373c-.49 0-.922.17-1.294.51-.372.324-.659.749-.862 1.276-.186.51-.33 1.02-.431 1.53a8.281 8.281 0 0 0-.127 1.404c0 1.445.592 2.168 1.776 2.168.49 0 .921-.162 1.293-.485.372-.34.651-.765.837-1.275a8.014 8.014 0 0 0 .431-1.53 7.32 7.32 0 0 0 .152-1.43c0-.646-.143-1.164-.431-1.555-.287-.409-.735-.613-1.344-.613Z"/></svg>